<svg xmlns="http://www.w3.org/2000/svg" width="52" height="36" viewBox="0 0 52 36"><path d="M33.3 4.7C32.7 3 31.5 1.6 29.9.8c-3.3-1.7-7.4-.3-9.1 3L9.6 26.1c-.8 1.6-.9 3.4-.4 5.2.6 1.7 1.7 3.1 3.4 3.9.6.3 1.3.5 2 .6.3 0 .7.1 1 .1 2.5 0 4.9-1.4 6-3.8L32.9 9.8c.8-1.6.9-3.4.4-5.1z" fill="#fc7a72"/><path d="M47.7.8c-3.3-1.7-7.4-.3-9.1 3L27.5 26.1c-1.7 3.3-.3 7.4 3 9.1.6.3 1.3.5 2 .6.3 0 .7.1 1 .1 2.5 0 4.9-1.4 6-3.8L50.7 9.8c1.7-3.3.4-7.3-3-9z" fill="#78bcff"/><circle cx="8" cy="7.5" r="7.4" fill="#ffc837"/></svg>